<svg width="1674" height="899" xmlns="http://www.w3.org/2000/svg" xmlns:xlink="http://www.w3.org/1999/xlink" xml:space="preserve" overflow="hidden"><defs><clipPath id="clip0"><rect x="1995" y="679" width="1674" height="899"/></clipPath></defs><g clip-path="url(#clip0)" transform="translate(-1995 -679)"><text fill="#BF9000" font-family="Calibri,Calibri_MSFontService,sans-serif" font-weight="700" font-size="92" transform="matrix(1 0 0 1 2050.04 1036)">Measure<tspan font-size="92" x="0" y="110">Status</tspan><tspan fill="#007ACC" font-size="83" x="647.584" y="2">From Endpoint</tspan><tspan fill="#007ACC" font-size="83" x="647.584" y="101">to Cloud</tspan><tspan fill="#007ACC" font-size="83" x="647.584" y="355">From Cloud</tspan><tspan fill="#007ACC" font-size="83" x="647.584" y="454">to Endpoint</tspan><tspan font-size="92" x="0" y="353">Parameter</tspan><tspan font-size="92" x="0" y="463">Setpoint</tspan></text><path d="M2492 967C2513.26 967 2530.5 969.873 2530.5 973.416L2530.5 1050.69C2530.5 1054.24 2547.74 1057.11 2569 1057.11 2547.74 1057.11 2530.5 1059.98 2530.5 1063.52L2530.5 1148.58C2530.5 1152.13 2513.26 1155 2492 1155" stroke="#007ACC" stroke-width="13.75" stroke-miterlimit="8" fill="none" fill-rule="evenodd"/><path d="M2494 1320C2514.99 1320 2532 1322.84 2532 1326.33L2532 1403.78C2532 1407.27 2549.01 1410.11 2570 1410.11 2549.01 1410.11 2532 1412.94 2532 1416.44L2532 1501.67C2532 1505.16 2514.99 1508 2494 1508" stroke="#007ACC" stroke-width="13.75" stroke-miterlimit="8" fill="none" fill-rule="evenodd"/><text fill="#BF9000" font-family="Calibri,Calibri_MSFontService,sans-serif" font-weight="700" font-size="92" transform="matrix(1 0 0 1 2050.04 793)">Constraint<tspan fill="#007ACC" font-size="83" x="647.584" y="0">Direction</tspan></text></g></svg>