<svg width="3431" height="1868" xmlns="http://www.w3.org/2000/svg" xmlns:xlink="http://www.w3.org/1999/xlink" xml:space="preserve" overflow="hidden"><defs><clipPath id="clip0"><rect x="1141" y="283" width="3431" height="1868"/></clipPath></defs><g clip-path="url(#clip0)" transform="translate(-1141 -283)"><path d="M1251.5 431C1251.5 350.643 1385.59 285.5 1551 285.5 1716.41 285.5 1850.5 350.643 1850.5 431 1850.5 511.357 1716.41 576.5 1551 576.5 1385.59 576.5 1251.5 511.357 1251.5 431Z" stroke="#5B9BD5" stroke-width="4.58333" stroke-miterlimit="8" fill="#5B9BD5" fill-rule="evenodd"/><text fill="#FFFFFF" font-family="Consolas,Consolas_MSFontService,sans-serif" font-weight="700" font-size="83" transform="matrix(1 0 0 1 1369.46 459)">Endpoint</text><path d="M1251.5 885C1251.5 804.642 1385.59 739.5 1551 739.5 1716.41 739.5 1850.5 804.642 1850.5 885 1850.5 965.357 1716.41 1030.5 1551 1030.5 1385.59 1030.5 1251.5 965.357 1251.5 885Z" stroke="#5B9BD5" stroke-width="4.58333" stroke-miterlimit="8" fill="#5B9BD5" fill-rule="evenodd"/><text fill="#FFFFFF" font-family="Consolas,Consolas_MSFontService,sans-serif" font-weight="700" font-size="83" transform="matrix(1 0 0 1 1459.98 913)">Node</text><path d="M1251.5 1339C1251.5 1258.64 1385.59 1193.5 1551 1193.5 1716.41 1193.5 1850.5 1258.64 1850.5 1339 1850.5 1419.36 1716.41 1484.5 1551 1484.5 1385.59 1484.5 1251.5 1419.36 1251.5 1339Z" stroke="#5B9BD5" stroke-width="4.58333" stroke-miterlimit="8" fill="#5B9BD5" fill-rule="evenodd"/><text fill="#FFFFFF" font-family="Consolas,Consolas_MSFontService,sans-serif" font-weight="700" font-size="83" transform="matrix(1 0 0 1 1414.72 1367)">Object</text><path d="M1251.5 1792.5C1251.5 1711.87 1385.59 1646.5 1551 1646.5 1716.41 1646.5 1850.5 1711.87 1850.5 1792.5 1850.5 1873.13 1716.41 1938.5 1551 1938.5 1385.59 1938.5 1251.5 1873.13 1251.5 1792.5Z" stroke="#5B9BD5" stroke-width="4.58333" stroke-miterlimit="8" fill="#5B9BD5" fill-rule="evenodd"/><text fill="#FFFFFF" font-family="Consolas,Consolas_MSFontService,sans-serif" font-weight="700" font-size="83" transform="matrix(1 0 0 1 1346.83 1821)">Attribute</text><path d="M1567.88 576 1567.88 725.028 1554.13 725.028 1554.13 576ZM1591 687.242 1561 738.672 1531 687.242C1529.09 683.963 1530.19 679.753 1533.47 677.84 1536.75 675.927 1540.96 677.034 1542.88 680.314L1566.94 721.564 1555.06 721.564 1579.12 680.314C1581.04 677.034 1585.25 675.926 1588.53 677.84 1591.81 679.753 1592.91 683.962 1591 687.242Z" fill="#5B9BD5"/><path d="M1567.88 1030 1567.88 1179.03 1554.13 1179.03 1554.13 1030ZM1591 1141.24 1561 1192.67 1531 1141.24C1529.09 1137.96 1530.19 1133.75 1533.47 1131.84 1536.75 1129.93 1540.96 1131.03 1542.88 1134.31L1566.94 1175.56 1555.06 1175.56 1579.12 1134.31C1581.04 1131.03 1585.25 1129.93 1588.53 1131.84 1591.81 1133.75 1592.91 1137.96 1591 1141.24Z" fill="#5B9BD5"/><path d="M1567.88 1484 1567.88 1633.03 1554.13 1633.03 1554.13 1484ZM1591 1595.24 1561 1646.67 1531 1595.24C1529.09 1591.96 1530.19 1587.75 1533.47 1585.84 1536.75 1583.93 1540.96 1585.03 1542.88 1588.31L1566.94 1629.56 1555.06 1629.56 1579.12 1588.31C1581.04 1585.03 1585.25 1583.93 1588.53 1585.84 1591.81 1587.75 1592.91 1591.96 1591 1595.24Z" fill="#5B9BD5"/><path d="M0-6.875 31.5016-6.875 24.6266 0 24.6266-190.57 212.986-190.57 212.986-9.02729 199.236-9.02729 199.236-183.695 206.111-176.82 31.5016-176.82 38.3766-183.695 38.3766 6.875 0 6.875ZM236.714-46.3276 205.893 4.61519 176.72-47.2893C174.859-50.5993 176.035-54.7907 179.345-56.651 182.655-58.5114 186.846-57.3363 188.706-54.0263L212.105-12.3959 200.229-12.5863 224.95-53.4453C226.915-56.6939 231.142-57.7341 234.391-55.7686 237.639-53.8031 238.68-49.5762 236.714-46.3276Z" fill="#5B9BD5" transform="matrix(1.83697e-16 1 1 -1.83697e-16 1336 1238)"/><text fill="#5B9BD5" font-family="Calibri,Calibri_MSFontService,sans-serif" font-weight="700" font-size="92" transform="matrix(1 0 0 1 1600.33 708)">*<tspan font-size="92" x="0" y="444">*</tspan><tspan font-size="92" x="-404.076" y="743">*</tspan><tspan font-size="92" x="0" y="887">*</tspan><tspan fill="#E09900" font-family="Consolas,Consolas_MSFontService,sans-serif" font-size="83" x="403.042" y="-263">UUID</tspan><tspan fill="#E09900" font-family="Consolas,Consolas_MSFontService,sans-serif" font-size="83" x="403.042" y="196">UUID/</tspan><tspan fill="#E09900" font-family="Consolas,Consolas_MSFontService,sans-serif" font-size="83" x="629.344" y="196">nodeName</tspan><tspan fill="#E09900" font-family="Consolas,Consolas_MSFontService,sans-serif" font-size="83" x="403.041" y="655">UUID/</tspan><tspan fill="#E09900" font-family="Consolas,Consolas_MSFontService,sans-serif" font-size="83" x="629.343" y="655">nodeName</tspan><tspan fill="#E09900" font-family="Consolas,Consolas_MSFontService,sans-serif" font-size="83" x="991.427" y="655">/</tspan><tspan fill="#E09900" font-family="Consolas,Consolas_MSFontService,sans-serif" font-size="83" x="1036.69" y="655">objectName</tspan><tspan fill="#E09900" font-family="Consolas,Consolas_MSFontService,sans-serif" font-size="83" x="403.041" y="1112">UUID/</tspan><tspan fill="#E09900" font-family="Consolas,Consolas_MSFontService,sans-serif" font-size="83" x="629.343" y="1112">nodeName</tspan><tspan fill="#E09900" font-family="Consolas,Consolas_MSFontService,sans-serif" font-size="83" x="991.427" y="1112">/</tspan><tspan fill="#E09900" font-family="Consolas,Consolas_MSFontService,sans-serif" font-size="83" x="1036.69" y="1112">objectName</tspan><tspan fill="#E09900" font-family="Consolas,Consolas_MSFontService,sans-serif" font-size="83" x="1489.29" y="1112">/</tspan><tspan fill="#E09900" font-family="Consolas,Consolas_MSFontService,sans-serif" font-size="83" x="1534.55" y="1112">attributeName</tspan></text><rect x="0" y="0" width="340" height="134" stroke="#5B9BD5" stroke-width="10.3125" stroke-linejoin="round" stroke-miterlimit="10" fill="none" transform="matrix(-1 0 0 1 1731 1985)"/><text fill="#5B9BD5" font-family="Calibri,Calibri_MSFontService,sans-serif" font-weight="700" font-size="83" transform="matrix(1 0 0 1 1439.4 2079)">Classes</text><rect x="0" y="0" width="404" height="134" stroke="#E09900" stroke-width="10.3125" stroke-linejoin="round" stroke-miterlimit="10" fill="none" transform="matrix(-1 0 0 1 2414 1985)"/><text fill="#E09900" font-family="Calibri,Calibri_MSFontService,sans-serif" font-weight="700" font-size="83" transform="matrix(1 0 0 1 2158.76 2079)">IDs</text></g></svg>