<?xml version="1.0" encoding="UTF-8" standalone="no"?><!DOCTYPE svg PUBLIC "-//W3C//DTD SVG 1.1//EN" "http://www.w3.org/Graphics/SVG/1.1/DTD/svg11.dtd"><svg width="100%" height="100%" viewBox="0 0 2862 3322" version="1.1" xmlns="http://www.w3.org/2000/svg" xmlns:xlink="http://www.w3.org/1999/xlink" xml:space="preserve" xmlns:serif="http://www.serif.com/" style="fill-rule:evenodd;clip-rule:evenodd;stroke-linecap:round;stroke-linejoin:round;stroke-miterlimit:1.5;"><rect id="intro-elements-1" x="0" y="0" width="2861.64" height="3321.95" style="fill:none;"/><path d="M1548.64,950.937l0,-298.199" style="fill:none;stroke:#029965;stroke-width:10px;stroke-dasharray:20,20,0,0;"/><path d="M1287.45,950.937l0,-337.067" style="fill:none;stroke:#029965;stroke-width:10px;stroke-dasharray:20,20,0,0;"/><path d="M1030.29,950.937l0,-475.11" style="fill:none;stroke:#029965;stroke-width:10px;stroke-dasharray:20,20,0,0;"/><path d="M1081.38,1610.08c0.039,-0.171 0.046,-0.315 0.065,-0.469c-0.126,0.032 -0.238,0.044 -0.37,0.088l0.305,0.381" style="fill:#2e86b9;fill-rule:nonzero;"/><path d="M1085.86,1612.36c-0.021,-0.035 -0.042,-0.07 -0.061,-0.105c-0.056,-0.007 -0.103,-0.026 -0.159,-0.031l0.22,0.136Z" style="fill:#2e86b9;fill-rule:nonzero;"/><path d="M1713.8,1280.6c0.012,0.059 0.033,0.11 0.045,0.168c0.03,0.028 0.061,0.058 0.091,0.089l-0.136,-0.257Z" style="fill:#2e86b9;fill-rule:nonzero;"/><g><g><path d="M901.635,106.606l576.235,0c24.056,0 43.557,19.502 43.557,43.558l0,346.479c0,24.056 -19.501,43.557 -43.557,43.557l-576.235,0c-24.056,0 -43.558,-19.501 -43.558,-43.557l0,-346.479c0,-24.056 19.502,-43.558 43.558,-43.558Z" style="fill:#009a65;fill-rule:nonzero;stroke:#fff;stroke-width:4.17px;stroke-linecap:butt;stroke-miterlimit:1.41421;"/><text x="962.747px" y="355.61px" style="font-family:'GillSans-SemiBold', 'Gill Sans', sans-serif;font-weight:600;font-size:91.667px;fill:#fff;stroke:#fff;stroke-width:4.17px;stroke-linecap:butt;stroke-miterlimit:1.41421;">Application</text></g><g><path d="M1150.51,182.818l576.235,0c24.056,0 43.558,19.502 43.558,43.558l0,346.479c0,24.056 -19.502,43.557 -43.558,43.557l-576.235,0c-24.056,0 -43.557,-19.501 -43.557,-43.557l0,-346.479c0,-24.056 19.501,-43.558 43.557,-43.558Z" style="fill:#009a65;fill-rule:nonzero;stroke:#fff;stroke-width:4.17px;stroke-linecap:butt;stroke-miterlimit:1.41421;"/><text x="1211.62px" y="431.822px" style="font-family:'GillSans-SemiBold', 'Gill Sans', sans-serif;font-weight:600;font-size:91.667px;fill:#fff;stroke:#fff;stroke-width:4.17px;stroke-linecap:butt;stroke-miterlimit:1.41421;">Application</text></g><g><path d="M1399.38,259.03l576.235,0c24.056,0 43.557,19.502 43.557,43.558l0,346.479c0,24.056 -19.501,43.558 -43.557,43.558l-576.235,0c-24.056,0 -43.558,-19.502 -43.558,-43.558l0,-346.479c0,-24.056 19.502,-43.558 43.558,-43.558Z" style="fill:#009a65;fill-rule:nonzero;stroke:#fff;stroke-width:4.17px;stroke-linecap:butt;stroke-miterlimit:1.41421;"/><text x="1460.49px" y="508.034px" style="font-family:'GillSans-SemiBold', 'Gill Sans', sans-serif;font-weight:600;font-size:91.667px;fill:#fff;stroke:#fff;stroke-width:4.17px;stroke-linecap:butt;stroke-miterlimit:1.41421;">Application</text></g></g><path d="M402.764,2390.38l916.39,-692.875" style="fill:none;stroke:#bf2763;stroke-width:10px;stroke-dasharray:50,50,0,0;"/><path d="M1035.56,2736.9l340.627,-1039.4" style="fill:none;stroke:#bf2763;stroke-width:10px;stroke-dasharray:50,50,0,0;"/><path d="M1627.26,2222.41l-251.073,-524.904" style="fill:none;stroke:#bf2763;stroke-width:10px;stroke-dasharray:50,50,0,0;"/><path d="M2421.58,2447.23l-982.959,-749.726" style="fill:none;stroke:#bf2763;stroke-width:10px;stroke-dasharray:50,50,0,0;"/><g><path d="M570.735,2222.41c-92.706,-92.705 -243.236,-92.705 -335.942,0c-92.705,92.706 -92.705,243.236 0.001,335.942c92.705,92.705 243.235,92.705 335.941,0c92.705,-92.706 92.705,-243.236 0,-335.942Z" style="fill:#d02367;stroke:#fff;stroke-width:4.17px;stroke-linecap:butt;stroke-miterlimit:1.41421;"/><text x="247.329px" y="2418.42px" style="font-family:'GillSans-SemiBold', 'Gill Sans', sans-serif;font-weight:600;font-size:79.167px;fill:#fff;stroke:#fff;stroke-width:4.17px;stroke-linecap:butt;stroke-miterlimit:1.41421;">Endpoint</text></g><g><path d="M1198.26,2564.64c-92.706,-92.706 -243.236,-92.706 -335.941,0c-92.706,92.706 -92.706,243.236 0,335.941c92.705,92.706 243.236,92.706 335.941,0c92.705,-92.705 92.705,-243.236 0,-335.941Z" style="fill:#d02367;stroke:#fff;stroke-width:4.17px;stroke-linecap:butt;stroke-miterlimit:1.41421;"/><text x="874.854px" y="2760.65px" style="font-family:'GillSans-SemiBold', 'Gill Sans', sans-serif;font-weight:600;font-size:79.167px;fill:#fff;stroke:#fff;stroke-width:4.17px;stroke-linecap:butt;stroke-miterlimit:1.41421;">Endpoint</text></g><g><path d="M1778.57,2152.88c-92.706,-92.705 -243.236,-92.705 -335.942,0c-92.705,92.706 -92.705,243.236 0,335.942c92.706,92.705 243.236,92.705 335.942,-0.001c92.705,-92.705 92.705,-243.235 0,-335.941Z" style="fill:#d02367;stroke:#fff;stroke-width:4.17px;stroke-linecap:butt;stroke-miterlimit:1.41421;"/><text x="1455.16px" y="2348.89px" style="font-family:'GillSans-SemiBold', 'Gill Sans', sans-serif;font-weight:600;font-size:79.167px;fill:#fff;stroke:#fff;stroke-width:4.17px;stroke-linecap:butt;stroke-miterlimit:1.41421;">Endpoint</text></g><g><path d="M2589.55,2279.26c-92.706,-92.706 -243.236,-92.706 -335.941,0c-92.706,92.705 -92.706,243.235 0,335.941c92.705,92.705 243.235,92.705 335.941,0c92.705,-92.706 92.705,-243.236 0,-335.941Z" style="fill:#d02367;stroke:#fff;stroke-width:4.17px;stroke-linecap:butt;stroke-miterlimit:1.41421;"/><text x="2266.15px" y="2475.27px" style="font-family:'GillSans-SemiBold', 'Gill Sans', sans-serif;font-weight:600;font-size:79.167px;fill:#fff;stroke:#fff;stroke-width:4.17px;stroke-linecap:butt;stroke-miterlimit:1.41421;">Endpoint</text></g><path d="M377.154,2670.41l-47.563,0l73.173,-73.173l73.173,73.173l-47.562,0l0,107.783l47.562,0l-73.173,73.173l-73.173,-73.173l47.563,0l0,-107.783Z" style="fill:#ce2b68;stroke:#fff;stroke-width:4.17px;"/><path d="M1007.07,3018.17l-47.563,0l73.173,-73.173l73.173,73.173l-47.562,0l0,107.783l47.562,0l-73.173,73.173l-73.173,-73.173l47.563,0l0,-107.783Z" style="fill:#ce2b68;stroke:#fff;stroke-width:4.17px;"/><path d="M1584.99,2598.98l-47.562,0l73.173,-73.173l73.173,73.173l-47.562,0l0,107.783l47.562,0l-73.173,73.173l-73.173,-73.173l47.562,0l0,-107.783Z" style="fill:#ce2b68;stroke:#fff;stroke-width:4.17px;"/><path d="M2396.11,2726.05l-47.562,0l73.173,-73.173l73.173,73.173l-47.562,0l0,107.782l47.562,0l-73.173,73.173l-73.173,-73.173l47.562,0l0,-107.782Z" style="fill:#ce2b68;stroke:#fff;stroke-width:4.17px;"/><text x="1386.38px" y="3033.37px" style="font-family:'GillSans', 'Gill Sans', sans-serif;font-size:91.667px;fill:#d02367;">Sensors &amp; actuators</text><path d="M320.848,889.516l2235.55,0c23.573,0 42.683,26.731 42.683,59.705l0,726.038c0,32.974 -19.11,59.705 -42.683,59.705l-2235.55,0c-23.573,0 -42.683,-26.731 -42.683,-59.705l0,-726.038c0,-32.974 19.11,-59.705 42.683,-59.705Z" style="fill:#0072a3;fill-rule:nonzero;stroke:#fff;stroke-width:4.17px;stroke-linecap:butt;stroke-linejoin:miter;stroke-miterlimit:4;"/><path d="M1088.25,1434.74c-0.028,-1.609 -1.075,-2.134 -2.448,-2.312c-0.979,-1.729 -2.081,-3.237 -4.356,-2.64c0.21,-1.861 -1.146,-2.587 -2.708,-3.162c-15.858,-16.252 -29.99,-33.615 -38.766,-54.944c-26.233,-63.756 2.554,-140.354 65.565,-174.54c15.332,-8.318 31.179,-15.011 48.297,-18.304c6.982,-1.341 8.327,-3.648 5.844,-10.66c-33.059,-93.327 28.569,-180.482 117.14,-207.271c56.418,-17.063 111.055,-12.36 163.306,15.189c28.812,15.191 52.475,36.254 68.509,64.835c4.578,8.163 8.553,9.431 17.869,6.892c70.356,-19.179 132.389,-6.014 182.786,49.269c0.493,0.541 1.246,0.849 1.882,1.269c0.893,0.86 1.784,1.721 2.675,2.579c0.287,1.301 0.755,2.432 2.415,2.446c0,0 -0.528,0.045 -0.526,0.045c15.945,24.908 27.662,51.24 27.342,81.556c-0.05,4.599 3.306,5.478 6.554,6.74c13.314,5.179 25.634,12.141 37.328,20.333c75.258,52.719 80.584,162.423 11.063,222.448c-29.4,25.382 -63.915,33.068 -101.645,33.022c-62.596,-0.079 -125.19,-0.086 -187.783,-0.073l-20.132,-76.228c-3.728,-14.115 -13.595,-15.214 -16.53,-15.214c-3.517,0 -12.163,1.367 -16.505,14.011l-13.465,39.141c-2.029,-1.443 -4.288,-2.633 -6.764,-3.479l-32.313,-11.054c-2.771,-0.949 -5.651,-1.43 -8.572,-1.43c-11.348,0 -21.437,7.183 -25.101,17.876l-12.482,36.424c-53.395,0.021 -106.791,0.037 -160.186,0.023c-9.968,-0.004 -19.985,-0.771 -29.895,-1.916c-28.908,-3.338 -54.316,-15.66 -78.4,-31.187l0.002,0.316c0.001,0.033 0.001,0.066 0.001,0.099l-0.001,-0.099Zm540.972,-164.177c3.591,0 6.595,1.309 9.012,3.926c2.417,2.617 3.763,5.785 4.04,9.504l0,73.142c0,3.719 -1.174,6.818 -3.522,9.297c-2.348,2.48 -5.525,3.857 -9.53,4.133c-3.591,0 -6.629,-1.102 -9.115,-3.306c-2.486,-2.204 -4.005,-5.303 -4.558,-9.298l0,-74.794c0.276,-3.581 1.727,-6.543 4.351,-8.885c2.624,-2.341 5.731,-3.581 9.322,-3.719Zm-395.272,99.588c3.591,-0.551 6.526,-2.1 8.805,-4.648c2.279,-2.549 3.418,-5.476 3.418,-8.781c-0.138,-3.72 -1.554,-6.819 -4.247,-9.298c-2.693,-2.479 -5.835,-3.719 -9.426,-3.719c-2.762,0 -5.041,-0.964 -6.836,-2.893c-1.796,-1.928 -2.693,-4.27 -2.693,-7.025l0,-81.612c-0.277,-3.857 -1.692,-7.094 -4.247,-9.711c-2.555,-2.617 -5.697,-3.926 -9.426,-3.926c-3.729,0.138 -6.837,1.446 -9.323,3.926c-2.486,2.479 -3.936,5.441 -4.35,8.884l0,82.439c0,4.821 0.932,9.436 2.797,13.844c1.864,4.407 4.419,8.264 7.665,11.57c3.245,3.306 7.009,5.957 11.29,7.955c4.282,1.997 8.839,2.995 13.673,2.995l2.9,0Zm141.494,-100.414c3.591,0 6.768,1.343 9.53,4.029c2.762,2.686 4.143,5.957 4.143,9.814l0,36.364c0,3.168 0.622,6.164 1.865,8.988c1.243,2.824 2.9,5.269 4.972,7.335c2.071,2.066 4.523,3.719 7.354,4.958c2.831,1.24 5.835,1.86 9.012,1.86c3.038,0 5.939,-0.551 8.701,-1.653c2.762,-1.102 5.214,-2.617 7.354,-4.545c2.141,-1.929 3.833,-4.27 5.076,-7.025c1.243,-2.755 1.864,-5.717 1.864,-8.885l0,-37.604c0,-3.443 1.312,-6.542 3.936,-9.297c2.625,-2.755 5.801,-4.201 9.53,-4.339c3.729,0 6.94,1.343 9.633,4.029c2.693,2.686 4.109,5.682 4.247,8.988l0,37.19c0,6.887 -1.312,13.361 -3.936,19.422c-2.624,6.061 -6.215,11.364 -10.773,15.909c-4.557,4.546 -9.875,8.127 -15.951,10.744c-6.077,2.617 -12.637,3.926 -19.681,3.926c-6.629,0.275 -12.982,-0.861 -19.059,-3.409c-6.077,-2.549 -11.429,-6.061 -16.056,-10.538c-4.626,-4.476 -8.321,-9.71 -11.083,-15.702c-2.762,-5.992 -4.143,-12.294 -4.143,-18.905l0,-38.018c0,-3.581 1.277,-6.714 3.832,-9.4c2.555,-2.686 5.766,-4.098 9.633,-4.236Zm227.468,86.158c0,3.857 -1.381,7.163 -4.143,9.918c-2.762,2.754 -6.146,4.132 -10.151,4.132c-3.867,0 -7.147,-1.378 -9.841,-4.132c-2.693,-2.755 -4.039,-6.061 -4.039,-9.918c0,-3.857 1.346,-7.163 4.039,-9.917c2.694,-2.755 5.974,-4.133 9.841,-4.133c4.005,0 7.389,1.378 10.151,4.133c2.762,2.754 4.143,6.06 4.143,9.917Zm-458.043,-85.951c13.811,0 25.551,4.821 35.218,14.463c2.348,2.617 3.419,5.716 3.211,9.297c-0.207,3.582 -1.553,6.543 -4.039,8.885c-2.486,2.341 -5.663,3.581 -9.53,3.719c-3.867,0.137 -7.044,-1.102 -9.53,-3.719c-4.281,-3.857 -9.391,-5.786 -15.33,-5.786c-3.176,0 -6.18,0.655 -9.011,1.963c-2.832,1.309 -5.318,3.031 -7.458,5.166c-2.141,2.135 -3.833,4.58 -5.076,7.334c-1.243,2.755 -1.864,5.648 -1.864,8.678c0,3.168 0.621,6.164 1.864,8.988c1.243,2.824 2.969,5.303 5.179,7.438c2.21,2.135 4.696,3.822 7.458,5.062c2.762,1.24 5.732,1.791 8.908,1.653c6.077,0 11.187,-1.86 15.33,-5.579c2.486,-2.754 5.663,-4.132 9.53,-4.132c3.867,0 7.044,1.378 9.53,4.132c1.243,1.102 2.209,2.411 2.9,3.926c0.691,1.515 1.07,3.099 1.139,4.752c0.07,1.653 -0.172,3.272 -0.725,4.856c-0.552,1.584 -1.381,2.996 -2.486,4.235c-4.833,4.821 -10.151,8.471 -15.951,10.951c-5.801,2.479 -12.223,3.719 -19.267,3.719c-6.905,0 -13.396,-1.343 -19.473,-4.029c-6.077,-2.686 -11.394,-6.302 -15.952,-10.847c-4.558,-4.546 -8.183,-9.849 -10.876,-15.91c-2.693,-6.06 -4.04,-12.465 -4.04,-19.215c0,-6.611 1.347,-12.948 4.04,-19.008c2.693,-6.061 6.353,-11.364 10.98,-15.91c4.626,-4.545 9.978,-8.195 16.055,-10.95c6.077,-2.755 12.499,-4.132 19.266,-4.132Zm413.71,-31.612c3.591,0 6.733,1.274 9.426,3.822c2.693,2.548 4.04,5.82 4.04,9.814l0,67.976c0,6.75 -1.347,13.155 -4.04,19.215c-2.693,6.061 -6.353,11.364 -10.98,15.91c-4.627,4.545 -9.978,8.161 -16.055,10.847c-6.077,2.686 -12.43,4.029 -19.06,4.029c-6.629,0 -12.982,-1.309 -19.059,-3.926c-6.077,-2.617 -11.428,-6.198 -16.055,-10.744c-4.627,-4.545 -8.321,-9.848 -11.083,-15.909c-2.763,-6.061 -4.144,-12.535 -4.144,-19.422c0,-6.749 1.347,-13.154 4.04,-19.215c2.693,-6.061 6.353,-11.364 10.98,-15.909c4.626,-4.546 9.978,-8.161 16.055,-10.847c6.077,-2.686 12.499,-4.029 19.266,-4.029c8.287,0 15.952,1.859 22.996,5.578l0,-23.76c0,-1.791 0.38,-3.513 1.139,-5.166c0.76,-1.653 1.761,-3.099 3.004,-4.339c1.243,-1.239 2.693,-2.204 4.351,-2.892c1.657,-0.689 3.383,-1.033 5.179,-1.033Zm-258.336,31.405c6.768,0 13.19,1.309 19.267,3.926c6.077,2.617 11.394,6.198 15.952,10.744c4.557,4.545 8.183,9.848 10.876,15.909c2.693,6.061 4.039,12.603 4.039,19.628c0,6.887 -1.312,13.327 -3.936,19.319c-2.624,5.991 -6.18,11.26 -10.669,15.806c-4.488,4.545 -9.771,8.126 -15.848,10.744c-6.077,2.617 -12.637,3.925 -19.681,3.925c-6.905,0 -13.396,-1.239 -19.473,-3.719c-6.077,-2.479 -11.394,-5.957 -15.952,-10.434c-4.558,-4.476 -8.148,-9.745 -10.773,-15.806c-2.624,-6.061 -3.936,-12.672 -3.936,-19.835c0,-6.887 1.278,-13.326 3.833,-19.318c2.555,-5.992 6.077,-11.226 10.565,-15.703c4.489,-4.477 9.806,-8.058 15.952,-10.744c6.146,-2.686 12.741,-4.167 19.784,-4.442Zm354.668,34.091c0,-9.091 1.726,-17.631 5.179,-25.62c3.453,-7.989 8.148,-14.979 14.087,-20.971c5.939,-5.992 12.948,-10.71 21.027,-14.153c8.08,-3.444 16.677,-5.166 25.793,-5.166c9.115,0 17.678,1.722 25.688,5.166c8.01,3.443 14.985,8.161 20.924,14.153c5.939,5.992 10.634,12.982 14.087,20.971c3.453,7.989 5.179,16.529 5.179,25.62c0,9.091 -1.726,17.631 -5.179,25.62c-3.453,7.99 -8.148,14.98 -14.087,20.972c-5.939,5.992 -12.914,10.709 -20.924,14.153c-8.01,3.443 -16.573,5.165 -25.688,5.165c-9.116,0 -17.713,-1.722 -25.793,-5.165c-8.079,-3.444 -15.088,-8.161 -21.027,-14.153c-5.939,-5.992 -10.634,-12.982 -14.087,-20.972c-3.453,-7.989 -5.179,-16.529 -5.179,-25.62Zm-354.668,-7.025c-3.176,0 -6.146,0.586 -8.908,1.757c-2.762,1.17 -5.213,2.789 -7.354,4.855c-2.141,2.066 -3.833,4.511 -5.076,7.335c-1.243,2.824 -1.864,5.888 -1.864,9.194c0,3.168 0.621,6.164 1.864,8.988c1.243,2.824 2.935,5.303 5.076,7.438c2.141,2.135 4.592,3.822 7.354,5.062c2.762,1.24 5.732,1.86 8.908,1.86c3.177,0 6.181,-0.62 9.012,-1.86c2.831,-1.24 5.283,-2.927 7.354,-5.062c2.072,-2.135 3.729,-4.614 4.972,-7.438c1.243,-2.824 1.865,-5.82 1.865,-8.988c-0.276,-6.336 -2.555,-11.708 -6.837,-16.116c-4.281,-4.407 -9.736,-6.749 -16.366,-7.025Zm221.667,0c-3.176,0 -6.18,0.62 -9.011,1.86c-2.831,1.24 -5.317,2.927 -7.458,5.062c-2.141,2.135 -3.833,4.614 -5.076,7.438c-1.243,2.824 -1.864,5.751 -1.864,8.781c0,3.168 0.621,6.164 1.864,8.988c1.243,2.824 2.935,5.269 5.076,7.335c2.141,2.066 4.627,3.719 7.458,4.958c2.831,1.24 5.835,1.86 9.011,1.86c3.039,0 5.939,-0.62 8.701,-1.86c2.763,-1.239 5.214,-2.927 7.355,-5.062c2.141,-2.135 3.832,-4.58 5.075,-7.334c1.243,-2.755 1.865,-5.717 1.865,-8.885c0,-3.306 -0.622,-6.37 -1.865,-9.194c-1.243,-2.824 -2.934,-5.269 -5.075,-7.335c-2.141,-2.066 -4.592,-3.685 -7.355,-4.855c-2.762,-1.171 -5.662,-1.757 -8.701,-1.757Zm160.347,7.025c0,5.372 1.001,10.4 3.003,15.083c2.003,4.683 4.765,8.781 8.287,12.294c3.522,3.512 7.631,6.267 12.326,8.264c4.696,1.998 9.737,2.996 15.124,2.996c5.386,0 10.392,-0.998 15.019,-2.996c4.627,-1.997 8.701,-4.752 12.223,-8.264c3.522,-3.513 6.284,-7.611 8.286,-12.294c2.003,-4.683 3.004,-9.711 3.004,-15.083c0,-5.372 -1.001,-10.365 -3.004,-14.979c-2.002,-4.615 -4.764,-8.678 -8.286,-12.19c-3.522,-3.513 -7.596,-6.268 -12.223,-8.265c-4.627,-1.997 -9.633,-2.996 -15.019,-2.996c-5.387,0 -10.428,0.999 -15.124,2.996c-4.695,1.997 -8.804,4.752 -12.326,8.265c-3.522,3.512 -6.284,7.575 -8.287,12.19c-2.002,4.614 -3.003,9.607 -3.003,14.979Zm-53.035,-64.877c3.591,0 6.664,1.343 9.219,4.029c2.555,2.686 3.833,5.82 3.833,9.401c0,3.582 -1.278,6.715 -3.833,9.401c-2.555,2.686 -5.628,4.029 -9.219,4.029c-4.005,-0.137 -7.285,-1.412 -9.84,-3.822c-2.555,-2.411 -3.833,-5.82 -3.833,-10.227c0.138,-3.582 1.554,-6.612 4.247,-9.092c2.693,-2.479 5.835,-3.719 9.426,-3.719Z" style="fill:#fff;"/><path d="M1467.96,1394.31c2.366,-6.878 5.82,-6.754 7.679,0.279l41.385,156.696c1.857,7.031 -2.265,10.853 -9.163,8.495l-16.787,-5.743c-6.895,-2.36 -14.469,1.341 -16.826,8.22l-26.018,75.888c-2.359,6.879 -9.931,10.578 -16.829,8.22l-32.312,-11.056c-6.898,-2.358 -10.605,-9.916 -8.238,-16.796l77.109,-224.203Z" style="fill:#e0a531;fill-rule:nonzero;"/><path d="M1362.02,1679.19c-2.366,6.878 -5.82,6.754 -7.678,-0.279l-41.385,-156.696c-1.857,-7.031 2.265,-10.853 9.163,-8.496l16.787,5.744c6.895,2.36 14.469,-1.341 16.826,-8.22l26.018,-75.888c2.359,-6.879 9.931,-10.578 16.829,-8.22l32.312,11.056c6.898,2.358 10.604,9.916 8.24,16.796l-77.112,224.203Z" style="fill:#e0a531;fill-rule:nonzero;"/></svg>